<?xml version="1.0" encoding="UTF-8"?>
<svg width="200px" height="200px" viewBox="0 0 200 200" version="1.1" xmlns="http://www.w3.org/2000/svg" xmlns:xlink="http://www.w3.org/1999/xlink">
    <title>Benutzer-Avatar 2</title>
    <defs>
        <linearGradient x1="0%" y1="0%" x2="100%" y2="100%" id="avatarGradient2">
            <stop stop-color="#3ECF8E" offset="0%"></stop>
            <stop stop-color="#61FFB7" offset="100%"></stop>
        </linearGradient>
    </defs>
    <g id="avatar-2" stroke="none" stroke-width="1" fill="none" fill-rule="evenodd">
        <circle id="background" fill="url(#avatarGradient2)" cx="100" cy="100" r="100"></circle>
        <circle id="face" fill="#FFFFFF" cx="100" cy="85" r="40"></circle>
        <path d="M100,140 C66.8,140 40,166.8 40,200 L160,200 C160,166.8 133.2,140 100,140 Z" id="body" fill="#FFFFFF"></path>
        <circle id="eye-left" fill="#333333" cx="85" cy="80" r="5"></circle>
        <circle id="eye-right" fill="#333333" cx="115" cy="80" r="5"></circle>
        <path d="M80,95 C80,95 90,100 100,100 C110,100 120,95 120,95" id="smile" stroke="#333333" stroke-width="3" stroke-linecap="round"></path>
        <rect id="glasses" stroke="#333333" stroke-width="3" x="65" y="70" width="70" height="20" rx="10"></rect>
        <line x1="100" y1="70" x2="100" y2="90" id="glasses-bridge" stroke="#333333" stroke-width="3"></line>
        <path d="M60,60 C60,60 70,40 100,40 C130,40 140,50 140,60" id="hair" fill="#333333"></path>
    </g>
</svg> 