<?xml version="1.0" encoding="UTF-8"?>
<svg width="200px" height="200px" viewBox="0 0 200 200" version="1.1" xmlns="http://www.w3.org/2000/svg" xmlns:xlink="http://www.w3.org/1999/xlink">
    <title>Benutzer-Avatar 1</title>
    <defs>
        <linearGradient x1="0%" y1="0%" x2="100%" y2="100%" id="avatarGradient1">
            <stop stop-color="#FF6B6B" offset="0%"></stop>
            <stop stop-color="#FF9E9E" offset="100%"></stop>
        </linearGradient>
    </defs>
    <g id="avatar-1" stroke="none" stroke-width="1" fill="none" fill-rule="evenodd">
        <circle id="background" fill="url(#avatarGradient1)" cx="100" cy="100" r="100"></circle>
        <circle id="face" fill="#FFFFFF" cx="100" cy="85" r="40"></circle>
        <path d="M100,140 C66.8,140 40,166.8 40,200 L160,200 C160,166.8 133.2,140 100,140 Z" id="body" fill="#FFFFFF"></path>
        <circle id="eye-left" fill="#333333" cx="85" cy="80" r="5"></circle>
        <circle id="eye-right" fill="#333333" cx="115" cy="80" r="5"></circle>
        <path d="M85,95 C85,95 93,105 100,105 C107,105 115,95 115,95" id="smile" stroke="#333333" stroke-width="3" stroke-linecap="round"></path>
        <path d="M70,65 C70,65 80,55 100,55 C120,55 130,65 130,65" id="hair" stroke="#333333" stroke-width="8" stroke-linecap="round"></path>
    </g>
</svg> 