<?xml version="1.0" encoding="UTF-8"?>
<svg width="80px" height="80px" viewBox="0 0 80 80" version="1.1" xmlns="http://www.w3.org/2000/svg" xmlns:xlink="http://www.w3.org/1999/xlink">
    <title>Personalisiertes Lernen Icon</title>
    <defs>
        <linearGradient x1="0%" y1="0%" x2="100%" y2="100%" id="iconGradient">
            <stop stop-color="#4C6FFF" offset="0%"></stop>
            <stop stop-color="#7A99FF" offset="100%"></stop>
        </linearGradient>
    </defs>
    <g id="personalized-icon" fill="none" stroke="none" stroke-width="1" fill-rule="evenodd">
        <!-- Hintergrund-Kreis -->
        <circle cx="40" cy="40" r="40" fill="url(#iconGradient)" opacity="0.1"></circle>
        
        <!-- Person-Silhouette -->
        <circle cx="40" cy="25" r="10" stroke="url(#iconGradient)" stroke-width="2" fill="#FFFFFF"></circle>
        <path d="M25,55 L25,50 C25,42 32,35 40,35 C48,35 55,42 55,50 L55,55 Z" stroke="url(#iconGradient)" stroke-width="2" fill="#FFFFFF"></path>
        
        <!-- Lernkarten -->
        <rect x="22" y="45" width="14" height="20" rx="2" transform="rotate(-15, 22, 45)" stroke="url(#iconGradient)" stroke-width="2" fill="#FFFFFF"></rect>
        <rect x="57" y="45" width="14" height="20" rx="2" transform="rotate(15, 57, 45)" stroke="url(#iconGradient)" stroke-width="2" fill="#FFFFFF"></rect>
        
        <!-- Personalisierungs-Symbole -->
        <circle cx="25" cy="50" r="3" fill="url(#iconGradient)"></circle>
        <circle cx="55" cy="50" r="3" fill="url(#iconGradient)"></circle>
        
        <!-- Verbindungslinien -->
        <path d="M40,35 L25,50" stroke="url(#iconGradient)" stroke-width="1.5" stroke-dasharray="2,2"></path>
        <path d="M40,35 L55,50" stroke="url(#iconGradient)" stroke-width="1.5" stroke-dasharray="2,2"></path>
        
        <!-- Sternchen für "Personalisiert" -->
        <path d="M40,15 L41,17 L43,17 L41.5,19 L42,21 L40,20 L38,21 L38.5,19 L37,17 L39,17 Z" fill="url(#iconGradient)"></path>
        <path d="M30,20 L31,22 L33,22 L31.5,24 L32,26 L30,25 L28,26 L28.5,24 L27,22 L29,22 Z" fill="url(#iconGradient)"></path>
        <path d="M50,20 L51,22 L53,22 L51.5,24 L52,26 L50,25 L48,26 L48.5,24 L47,22 L49,22 Z" fill="url(#iconGradient)"></path>
    </g>
</svg> 