<svg width="200" height="200" viewBox="0 0 200 200" xmlns="http://www.w3.org/2000/svg">
    <g fill="#3ECF8E">
        <circle cx="20" cy="20" r="3"/>
        <circle cx="60" cy="20" r="3"/>
        <circle cx="100" cy="20" r="3"/>
        <circle cx="140" cy="20" r="3"/>
        <circle cx="180" cy="20" r="3"/>
        
        <circle cx="20" cy="60" r="3"/>
        <circle cx="60" cy="60" r="3"/>
        <circle cx="100" cy="60" r="3"/>
        <circle cx="140" cy="60" r="3"/>
        <circle cx="180" cy="60" r="3"/>
        
        <circle cx="20" cy="100" r="3"/>
        <circle cx="60" cy="100" r="3"/>
        <circle cx="100" cy="100" r="3"/>
        <circle cx="140" cy="100" r="3"/>
        <circle cx="180" cy="100" r="3"/>
        
        <circle cx="20" cy="140" r="3"/>
        <circle cx="60" cy="140" r="3"/>
        <circle cx="100" cy="140" r="3"/>
        <circle cx="140" cy="140" r="3"/>
        <circle cx="180" cy="140" r="3"/>
        
        <circle cx="20" cy="180" r="3"/>
        <circle cx="60" cy="180" r="3"/>
        <circle cx="100" cy="180" r="3"/>
        <circle cx="140" cy="180" r="3"/>
        <circle cx="180" cy="180" r="3"/>
    </g>
</svg> 